<svg width="196.013720703125px" height="62.0322265625px" xmlns="http://www.w3.org/2000/svg" viewBox="151.9931396484375 43.98388671875 196.013720703125 62.0322265625" style="background:#051103" preserveAspectRatio="xMidYMid"><defs><linearGradient id="editing-glowing-gradient" x1="0.8146601955249185" x2="0.18533980447508147" y1="0.8885729807284856" y2="0.11142701927151444"><stop offset="0" stop-color="#67ff43"></stop><stop offset="1" stop-color="#90ffff"></stop></linearGradient><filter id="editing-glowing" x="-100%" y="-100%" width="300%" height="300%"><feGaussianBlur in="SourceGraphic" result="blur" stdDeviation="10"></feGaussianBlur><feMerge><feMergeNode in="blur"></feMergeNode><feMergeNode in="SourceGraphic"></feMergeNode></feMerge></filter></defs><g filter="url(#editing-glowing)"><g transform="translate(186.29343795776367, 84.75)"><path d="M14.01-5.38L14.01-5.38L14.01-5.38Q14.69-4.89 14.69-3.84L14.69-3.84L14.69-3.84Q14.69-2.78 14.24-2.04L14.24-2.04L14.24-2.04Q13.78-1.30 12.90-0.73L12.90-0.73L12.90-0.73Q11.00 0.49 7.68 0.49L7.68 0.49L7.68 0.49Q4.37 0.49 2.56-1.24L2.56-1.24L2.56-1.24Q0.75-2.96 0.75-6.03L0.75-6.03L0.75-6.03Q0.75-10.37 3.02-13.68L3.02-13.68L3.02-13.68Q4.73-16.12 7.80-17.16L7.80-17.16L7.80-17.16Q9.39-17.68 10.95-17.68L10.95-17.68L10.95-17.68Q12.51-17.68 13.47-17.47L13.47-17.47L13.47-17.47Q14.43-17.26 15.16-16.85L15.16-16.85L15.16-16.85Q16.74-15.94 16.74-14.48L16.74-14.48L16.74-14.48Q16.74-13.16 15.50-12.17L15.50-12.17L15.50-12.17Q14.35-11.28 13.42-11.28L13.42-11.28L13.42-11.28Q12.48-11.28 12.09-11.41L12.09-11.41L12.09-11.41Q12.19-12.35 12.19-12.96L12.19-12.96L12.19-12.96Q12.19-13.57 12.17-14.01L12.17-14.01L12.17-14.01Q12.14-14.46 12.01-14.87L12.01-14.87L12.01-14.87Q11.75-15.83 10.96-15.83L10.96-15.83L10.96-15.83Q10.17-15.83 9.37-15.09L9.37-15.09L9.37-15.09Q8.58-14.35 7.90-13.10L7.90-13.10L7.90-13.10Q6.37-10.27 6.37-6.92L6.37-6.92L6.37-6.92Q6.37-5.30 7.28-4.38L7.28-4.38L7.28-4.38Q8.19-3.46 10.14-3.46L10.14-3.46L10.14-3.46Q11.60-3.46 12.97-4.42L12.97-4.42L12.97-4.42Q13.57-4.84 14.01-5.38ZM23.06-1.43L23.06-1.43L23.06-1.43Q22.26 0.52 19.68 0.52L19.68 0.52L19.68 0.52Q18.38 0.52 17.55-0.39L17.55-0.39L17.55-0.39Q16.87-1.14 16.87-2.00L16.87-2.00L16.87-2.00Q16.87-3.95 17.78-8.22L17.78-8.22L19.68-18.20L24.96-18.72L22.44-5.56L22.44-5.56Q22.00-3.64 22.00-2.96L22.00-2.96L22.00-2.96Q22.00-1.48 23.06-1.43ZM31.51-1.43L31.51-1.43L31.51-1.43Q30.71 0.52 28.13 0.52L28.13 0.52L28.13 0.52Q26.81 0.52 25.97-0.39L25.97-0.39L25.97-0.39Q25.27-1.20 25.27-2.00L25.27-2.00L25.27-2.00Q25.27-4.11 26.23-8.22L26.23-8.22L27.20-13.26L32.47-13.78L30.89-5.56L30.89-5.56Q30.45-3.64 30.45-2.96L30.45-2.96L30.45-2.96Q30.45-1.48 31.51-1.43ZM27.66-16.87L27.66-16.87L27.66-16.87Q27.66-17.89 28.51-18.43L28.51-18.43L28.51-18.43Q29.35-18.98 30.58-18.98L30.58-18.98L30.58-18.98Q31.80-18.98 32.54-18.43L32.54-18.43L32.54-18.43Q33.28-17.89 33.28-16.87L33.28-16.87L33.28-16.87Q33.28-15.86 32.46-15.34L32.46-15.34L32.46-15.34Q31.64-14.82 30.42-14.82L30.42-14.82L30.42-14.82Q29.20-14.82 28.43-15.34L28.43-15.34L28.43-15.34Q27.66-15.86 27.66-16.87ZM46.49-10.82L46.49-10.82L46.49-10.82Q46.49-9.72 45.58-9.05L45.58-9.05L45.58-9.05Q44.67-8.37 43.19-8.37L43.19-8.37L43.19-8.37Q42.56-8.37 42.20-8.55L42.20-8.55L42.20-8.55Q42.48-9.23 42.58-10.08L42.58-10.08L42.58-10.08Q42.67-10.92 42.67-11.15L42.67-11.15L42.67-11.15Q42.67-12.25 41.91-12.25L41.91-12.25L41.91-12.25Q41.39-12.25 40.81-11.60L40.81-11.60L40.81-11.60Q40.22-10.95 39.73-9.93L39.73-9.93L39.73-9.93Q38.64-7.59 38.64-5.23L38.64-5.23L38.64-5.23Q38.64-3.93 39.13-3.34L39.13-3.34L39.13-3.34Q39.62-2.76 40.72-2.76L40.72-2.76L40.72-2.76Q42.22-2.76 43.42-4.00L43.42-4.00L43.42-4.00Q43.76-4.39 43.94-4.84L43.94-4.84L43.94-4.84Q44.93-4.32 44.93-2.89L44.93-2.89L44.93-2.89Q44.93-1.43 43.32-0.47L43.32-0.47L43.32-0.47Q41.65 0.52 39.00 0.52L39.00 0.52L39.00 0.52Q33.72 0.52 33.72-5.07L33.72-5.07L33.72-5.07Q33.72-9.15 36.04-11.49L36.04-11.49L36.04-11.49Q38.27-13.78 42.38-13.78L42.38-13.78L42.38-13.78Q46.49-13.78 46.49-10.82ZM53.90-12.32L53.90-12.32L53.90-12.32Q55.30-13.78 58.27-13.78L58.27-13.78L58.27-13.78Q59.90-13.78 60.80-12.91L60.80-12.91L60.80-12.91Q61.70-12.04 61.70-10.44L61.70-10.44L61.70-10.44Q61.70-8.84 60.80-7.71L60.80-7.71L60.80-7.71Q59.90-6.58 58.24-6.11L58.24-6.11L58.24-6.11Q58.37-5.59 58.55-5.04L58.55-5.04L58.92-4.00L58.92-4.00Q59.41-2.68 59.80-2.21L59.80-2.21L59.80-2.21Q60.19-1.74 60.71-1.59L60.71-1.59L60.71-1.59Q60.42-0.52 59.38 0.05L59.38 0.05L59.38 0.05Q58.55 0.52 57.41 0.52L57.41 0.52L57.41 0.52Q54.05 0.52 53.61-4.65L53.61-4.65L53.61-4.65Q53.53-5.38 53.53-6.11L53.53-6.11L53.53-6.11Q54.83-6.47 55.74-7.70L55.74-7.70L55.74-7.70Q56.65-8.92 56.65-10.35L56.65-10.35L56.65-10.35Q56.65-11.78 55.64-11.78L55.64-11.78L55.64-11.78Q54.91-11.78 54.34-10.97L54.34-10.97L54.34-10.97Q53.77-10.17 53.51-8.79L53.51-8.79L51.79 0L46.54 0.52L50.18-18.20L55.41-18.72L54.81-15.63L54.81-15.63Q54.42-13.44 53.90-12.32ZM77.95-1.95L77.95-1.95L77.95-1.95Q77.95-3.77 78.68-7.41L78.68-7.41L74.83-7.41L73.40 0L67.96 0L71.27-17.16L76.75-17.16L75.24-9.49L79.09-9.49L80.52-17.16L86.01-17.16L86.01-17.16Q85.64-15.24 85.18-13.08L85.18-13.08L84.29-8.84L84.29-8.84Q83.30-3.90 83.30-1.74L83.30-1.74L83.30-1.74Q83.30-0.86 83.59-0.36L83.59-0.36L83.59-0.36Q82.29 0.52 80.77 0.52L80.77 0.52L80.77 0.52Q79.25 0.52 78.60-0.21L78.60-0.21L78.60-0.21Q77.95-0.94 77.95-1.95ZM97.16-4.39L97.16-4.39L97.16-4.39Q97.81-3.95 97.81-2.98L97.81-2.98L97.81-2.98Q97.81-2.00 97.32-1.38L97.32-1.38L97.32-1.38Q96.82-0.75 96.02-0.34L96.02-0.34L96.02-0.34Q94.35 0.52 92.56 0.52L92.56 0.52L92.56 0.52Q90.77 0.52 89.71 0.13L89.71 0.13L89.71 0.13Q88.66-0.26 87.96-0.99L87.96-0.99L87.96-0.99Q86.58-2.37 86.58-4.89L86.58-4.89L86.58-4.89Q86.58-8.81 88.71-11.21L88.71-11.21L88.71-11.21Q91.00-13.78 94.98-13.78L94.98-13.78L94.98-13.78Q97.45-13.78 98.67-12.74L98.67-12.74L98.67-12.74Q99.58-11.96 99.58-10.69L99.58-10.69L99.58-10.69Q99.58-6.11 91.68-6.11L91.68-6.11L91.68-6.11Q91.57-5.43 91.57-4.86L91.57-4.86L91.57-4.86Q91.57-3.67 92.11-3.21L92.11-3.21L92.11-3.21Q92.64-2.76 93.63-2.76L93.63-2.76L93.63-2.76Q94.61-2.76 95.67-3.21L95.67-3.21L95.67-3.21Q96.72-3.67 97.16-4.39ZM91.86-7.23L91.86-7.23L91.86-7.23Q93.70-7.23 94.77-8.37L94.77-8.37L94.77-8.37Q95.84-9.46 95.84-11.21L95.84-11.21L95.84-11.21Q95.84-11.80 95.62-12.13L95.62-12.13L95.62-12.13Q95.39-12.45 94.95-12.45L94.95-12.45L94.95-12.45Q94.51-12.45 94.13-12.29L94.13-12.29L94.13-12.29Q93.76-12.12 93.37-11.54L93.37-11.54L93.37-11.54Q92.40-10.24 91.86-7.23ZM108.60-7.31L108.60-7.31L108.60-7.31Q109.54-8.97 109.54-10.66L109.54-10.66L109.54-10.66Q109.54-11.78 108.73-11.78L108.73-11.78L108.73-11.78Q108.11-11.78 107.46-10.71L107.46-10.71L107.46-10.71Q106.78-9.65 106.57-8.27L106.57-8.27L105.22 0L99.84 0.52L102.49-13.26L106.78-13.78L106.31-11.15L106.31-11.15Q107.59-13.78 110.45-13.78L110.45-13.78L110.45-13.78Q111.96-13.78 112.78-13.00L112.78-13.00L112.78-13.00Q113.59-12.22 113.59-10.62L113.59-10.62L113.59-10.62Q113.59-9.02 112.54-8.01L112.54-8.01L112.54-8.01Q111.49-6.99 109.69-6.99L109.69-6.99L109.69-6.99Q108.91-6.99 108.60-7.31ZM124.54-4.39L124.54-4.39L124.54-4.39Q125.19-3.95 125.19-2.98L125.19-2.98L125.19-2.98Q125.19-2.00 124.70-1.38L124.70-1.38L124.70-1.38Q124.20-0.75 123.40-0.34L123.40-0.34L123.40-0.34Q121.73 0.52 119.94 0.52L119.94 0.52L119.94 0.52Q118.14 0.52 117.09 0.13L117.09 0.13L117.09 0.13Q116.04-0.26 115.34-0.99L115.34-0.99L115.34-0.99Q113.96-2.37 113.96-4.89L113.96-4.89L113.96-4.89Q113.96-8.81 116.09-11.21L116.09-11.21L116.09-11.21Q118.38-13.78 122.36-13.78L122.36-13.78L122.36-13.78Q124.83-13.78 126.05-12.74L126.05-12.74L126.05-12.74Q126.96-11.96 126.96-10.69L126.96-10.69L126.96-10.69Q126.96-6.11 119.05-6.11L119.05-6.11L119.05-6.11Q118.95-5.43 118.95-4.86L118.95-4.86L118.95-4.86Q118.95-3.67 119.48-3.21L119.48-3.21L119.48-3.21Q120.02-2.76 121.00-2.76L121.00-2.76L121.00-2.76Q121.99-2.76 123.05-3.21L123.05-3.21L123.05-3.21Q124.10-3.67 124.54-4.39ZM119.24-7.23L119.24-7.23L119.24-7.23Q121.08-7.23 122.15-8.37L122.15-8.37L122.15-8.37Q123.21-9.46 123.21-11.21L123.21-11.21L123.21-11.21Q123.21-11.80 122.99-12.13L122.99-12.13L122.99-12.13Q122.77-12.45 122.33-12.45L122.33-12.45L122.33-12.45Q121.89-12.45 121.51-12.29L121.51-12.29L121.51-12.29Q121.13-12.12 120.74-11.54L120.74-11.54L120.74-11.54Q119.78-10.24 119.24-7.23Z" fill="url(#editing-glowing-gradient)"></path></g></g><style>text {
  font-size: 64px;
  font-family: Arial Black;
  dominant-baseline: central;
  text-anchor: middle;
}</style></svg>