<svg width="715" height="639" viewBox="0 0 715 639" fill="none" xmlns="http://www.w3.org/2000/svg">
<path opacity="0.1" d="M432.15 215.702C428.283 214.63 424.284 215.267 420.665 217.533C418.482 218.946 416.119 219.669 413.731 219.654C411.343 219.638 408.985 218.885 406.81 217.442C404.245 215.8 401.467 214.991 398.667 215.071C395.867 215.15 393.112 216.116 390.593 217.903C389.154 219.019 387.551 219.606 385.922 219.614C379.347 219.614 373.875 209.938 372.738 197.171C374.051 195.766 375.167 194.007 376.026 191.988C379.881 182.913 385.853 177.09 392.558 177.09C399.263 177.09 405.16 182.843 408.995 191.828C410.149 194.546 411.765 196.781 413.685 198.317C415.605 199.853 417.764 200.637 419.953 200.593H420.124C425.377 200.633 429.911 206.766 432.15 215.702Z" fill="#6C63FF"/>
<path opacity="0.1" d="M510.134 175.451L491.769 185.397L502.916 168.091C499.754 165.943 495.846 164.753 491.805 164.708H491.509C490.233 164.727 488.958 164.65 487.699 164.476L481.498 167.838L484.173 163.698C479.759 162.384 475.948 159.909 473.286 156.63L462.139 162.689L469.239 151.774C462.719 145.099 453.939 141 444.283 141C432.698 141 422.38 146.887 415.718 156.045C413.748 158.795 410.956 161.048 407.629 162.574C404.302 164.1 400.559 164.843 396.785 164.728H396.158C383.366 164.728 373 177.107 373 192.364C373 207.621 383.366 220 396.158 220C398.971 219.992 401.74 219.403 404.228 218.283C408.579 216.477 413.339 215.498 418.177 215.416C423.015 215.334 427.817 216.151 432.249 217.809C435.994 219.245 440.052 219.991 444.158 220C448.265 220.009 452.327 219.279 456.081 217.859C460.48 216.233 465.237 215.432 470.031 215.51C474.824 215.589 479.542 216.545 483.865 218.314C486.327 219.413 489.062 219.991 491.84 220C504.632 220 514.998 207.631 514.998 192.364C515.068 186.467 513.395 180.651 510.134 175.451V175.451Z" fill="#6C63FF"/>
<path d="M355.171 145.152C355.09 144.239 354.897 143.355 354.603 142.54C354.37 142.055 354.088 141.623 353.767 141.26C353.251 140.557 352.646 140.006 351.987 139.639C351.651 139.447 351.289 139.379 350.931 139.438C350.573 139.497 350.23 139.683 349.932 139.979C349.402 140.675 349.082 141.65 349.042 142.69C348.898 144.101 349.066 145.542 349.521 146.803C350.069 148.194 351.014 149.124 351.802 150.235C352.38 151.037 352.883 151.949 353.295 152.946C353.484 153.467 353.714 153.954 353.98 154.397C354.113 154.616 354.28 154.787 354.467 154.895C354.654 155.002 354.855 155.044 355.055 155.017C355.389 154.891 355.693 154.631 355.932 154.267C356.254 153.857 357.13 153.106 357.158 152.446C357.185 151.786 356.473 150.705 356.329 150.205C355.823 148.584 355.435 146.891 355.171 145.152Z" fill="#FBBEBE"/>
<path d="M357.5 639C554.942 639 715 628.697 715 615.987C715 603.277 554.942 592.974 357.5 592.974C160.058 592.974 0 603.277 0 615.987C0 628.697 160.058 639 357.5 639Z" fill="#3F3D56"/>
<path opacity="0.1" d="M343.803 630.065C386.544 630.065 421.193 623.314 421.193 614.986C421.193 606.659 386.544 599.908 343.803 599.908C301.061 599.908 266.413 606.659 266.413 614.986C266.413 623.314 301.061 630.065 343.803 630.065Z" fill="black"/>
<path d="M349.165 615.046C346.742 615.736 344.242 615.584 341.866 614.602C339.49 613.62 337.306 611.836 335.489 609.394C333.672 606.951 332.273 603.92 331.406 600.543C330.539 597.165 330.227 593.538 330.496 589.952C332.29 566.779 337.872 529.448 353.137 473.407C370.834 408.43 364.451 392.731 345.487 346.135C339.365 331.077 332.42 314.017 324.942 292.105C305.656 235.813 312.984 192.428 322.503 166.024C332.626 137.918 347.104 123.199 348.72 121.609L363.664 157.729L362.294 159.73C362.26 159.73 362.979 159.73 364.02 162.502C358.171 169.907 353.363 178.902 349.864 188.986C341.577 213.23 342.673 241.016 353.117 271.503C360.109 291.934 366.739 308.234 372.588 322.612C383.093 348.426 391.387 368.818 394.134 394.562C396.976 421.207 393.449 449.873 382.429 490.416C367.903 543.736 363.253 577.105 361.835 595.015C361.454 599.881 360.023 604.443 357.749 608.041C355.474 611.638 352.475 614.085 349.186 615.026L349.165 615.046Z" fill="#3F3D56"/>
<path d="M280.11 92.6022L343.495 0L407.495 92.6022H363.999V163.412H323.606V93.0524L280.11 92.6022Z" fill="#6C63FF"/>
<path opacity="0.1" d="M482.146 614.596C504.462 614.596 522.553 611.071 522.553 606.722C522.553 602.373 504.462 598.847 482.146 598.847C459.829 598.847 441.738 602.373 441.738 606.722C441.738 611.071 459.829 614.596 482.146 614.596Z" fill="black"/>
<path d="M484.947 606.752C483.682 607.113 482.376 607.035 481.136 606.523C479.895 606.011 478.755 605.08 477.806 603.805C476.858 602.53 476.127 600.947 475.675 599.184C475.222 597.42 475.06 595.526 475.201 593.654C476.132 581.558 479.05 562.067 487.022 532.81C496.261 498.881 492.925 490.687 483.029 466.353C479.831 458.498 476.18 449.583 472.284 438.137C462.23 408.75 466.051 386.108 471.023 372.32C474.3 363.145 478.989 355.206 484.721 349.127L492.521 367.987L491.795 368.988C491.795 368.988 492.165 368.988 492.699 370.439C489.643 374.303 487.131 379 485.303 384.267C480.981 396.924 481.557 411.422 487.008 427.351C490.658 438.017 494.117 446.532 497.172 454.036C502.65 467.513 506.986 478.159 508.424 491.607C509.903 505.515 508.075 520.483 502.308 541.635C494.727 569.471 492.295 586.891 491.556 596.246C491.361 598.789 490.616 601.175 489.429 603.056C488.241 604.937 486.673 606.214 484.954 606.702L484.947 606.752Z" fill="#3F3D56"/>
<path d="M448.888 333.968L481.981 285.621L515.403 333.968H492.693V370.939H471.599V334.208L448.888 333.968Z" fill="#6C63FF"/>
<path opacity="0.1" d="M205.46 614.596C227.776 614.596 245.867 611.071 245.867 606.722C245.867 602.373 227.776 598.847 205.46 598.847C183.144 598.847 165.053 602.373 165.053 606.722C165.053 611.071 183.144 614.596 205.46 614.596Z" fill="black"/>
<path d="M202.659 606.752C203.924 607.113 205.229 607.035 206.47 606.523C207.71 606.011 208.851 605.08 209.799 603.805C210.748 602.53 211.478 600.947 211.93 599.184C212.383 597.42 212.545 595.526 212.404 593.654C211.473 581.558 208.555 562.067 200.584 532.81C191.345 498.881 194.68 490.687 204.576 466.353C207.775 458.498 211.425 449.583 215.322 438.137C225.376 408.75 221.554 386.108 216.582 372.32C213.305 363.145 208.617 355.206 202.885 349.127L195.084 367.987L195.81 368.988C195.81 368.988 195.44 368.988 194.906 370.439C197.962 374.303 200.475 379 202.303 384.267C206.624 396.924 206.049 411.422 200.597 427.351C196.947 438.017 193.488 446.532 190.434 454.036C184.955 467.513 180.62 478.159 179.181 491.607C177.702 505.515 179.531 520.483 185.297 541.635C192.879 569.471 195.31 586.891 196.05 596.246C196.244 598.789 196.989 601.175 198.177 603.056C199.364 604.937 200.932 606.214 202.652 606.702L202.659 606.752Z" fill="#3F3D56"/>
<path d="M238.717 333.968L205.624 285.621L172.203 333.968H194.913V370.939H216.007V334.208L238.717 333.968Z" fill="#6C63FF"/>
<path opacity="0.1" d="M343.81 292.779C351.426 289.485 357.383 285.741 357.114 284.416C356.846 283.092 350.454 284.688 342.838 287.982C335.221 291.276 329.265 295.02 329.533 296.345C329.802 297.669 336.193 296.073 343.81 292.779Z" fill="black"/>
<path opacity="0.1" d="M349.971 312.793C357.588 309.499 363.544 305.755 363.276 304.43C363.008 303.106 356.616 304.702 348.999 307.996C341.383 311.29 335.426 315.034 335.695 316.359C335.963 317.683 342.355 316.087 349.971 312.793Z" fill="black"/>
<path opacity="0.1" d="M356.818 327.796C364.434 324.502 370.391 320.758 370.122 319.433C369.854 318.109 363.462 319.705 355.846 322.999C348.229 326.293 342.272 330.037 342.541 331.362C342.809 332.686 349.201 331.09 356.818 327.796Z" fill="black"/>
<path opacity="0.1" d="M362.302 342.807C369.919 339.513 375.875 335.769 375.607 334.444C375.339 333.119 368.947 334.716 361.33 338.01C353.714 341.304 347.757 345.048 348.026 346.372C348.294 347.697 354.686 346.101 362.302 342.807Z" fill="black"/>
<path d="M603.504 608.383H574.411C572.811 608.383 571.276 607.454 570.144 605.801C569.013 604.148 568.377 601.906 568.377 599.568C568.377 597.23 569.013 594.988 570.144 593.335C571.276 591.681 572.811 590.753 574.411 590.753C573.602 590.793 572.796 590.594 572.04 590.169C571.285 589.745 570.595 589.102 570.014 588.28C569.432 587.458 568.969 586.473 568.653 585.385C568.337 584.296 568.174 583.125 568.174 581.943C568.174 580.76 568.337 579.59 568.653 578.501C568.969 577.412 569.432 576.428 570.014 575.606C570.595 574.784 571.285 574.141 572.04 573.716C572.796 573.291 573.602 573.093 574.411 573.133H575.739C576.5 565.549 582.355 559.645 589.478 559.635C596.6 559.625 602.49 565.519 603.237 573.093H603.504C604.313 573.053 605.119 573.251 605.875 573.676C606.63 574.101 607.319 574.744 607.901 575.566C608.483 576.388 608.946 577.372 609.262 578.461C609.578 579.55 609.741 580.72 609.741 581.903C609.741 583.085 609.578 584.256 609.262 585.345C608.946 586.433 608.483 587.418 607.901 588.24C607.319 589.062 606.63 589.705 605.875 590.129C605.119 590.554 604.313 590.753 603.504 590.713C605.104 590.713 606.639 591.641 607.77 593.295C608.902 594.948 609.538 597.19 609.538 599.528C609.538 601.866 608.902 604.108 607.77 605.761C606.639 607.414 605.104 608.343 603.504 608.343V608.383Z" fill="#6C63FF"/>
<path opacity="0.1" d="M609.531 581.938C609.529 584.273 608.893 586.512 607.764 588.165C606.634 589.817 605.102 590.748 603.504 590.753H574.418L603.319 573.093H603.497C605.1 573.098 606.635 574.033 607.767 575.691C608.898 577.35 609.532 579.596 609.531 581.938V581.938Z" fill="black"/>
<path opacity="0.1" d="M568.555 599.658C568.561 601.992 569.198 604.229 570.329 605.879C571.459 607.528 572.991 608.457 574.589 608.463H603.682L574.76 590.883H574.602C573.006 590.885 571.475 591.809 570.343 593.452C569.21 595.096 568.568 597.326 568.555 599.658V599.658Z" fill="black"/>
<path d="M441.137 598H412.863C411.308 598 409.817 597.085 408.717 595.458C407.618 593.83 407 591.622 407 589.32C407 587.018 407.618 584.81 408.717 583.182C409.817 581.555 411.308 580.64 412.863 580.64C411.308 580.64 409.817 579.726 408.717 578.098C407.618 576.47 407 574.262 407 571.96C407 569.658 407.618 567.45 408.717 565.823C409.817 564.195 411.308 563.28 412.863 563.28H414.165C414.892 555.816 420.591 550 427.51 550C434.429 550 440.128 555.781 440.879 563.246H441.137C442.692 563.246 444.183 564.16 445.283 565.788C446.382 567.416 447 569.623 447 571.925C447 574.228 446.382 576.435 445.283 578.063C444.183 579.691 442.692 580.605 441.137 580.605C442.692 580.605 444.183 581.52 445.283 583.148C446.382 584.776 447 586.983 447 589.285C447 591.587 446.382 593.795 445.283 595.423C444.183 597.051 442.692 597.965 441.137 597.965V598Z" fill="#6C63FF"/>
<path opacity="0.1" d="M446 572C446 574.387 445.602 576.676 444.893 578.364C444.185 580.052 443.223 581 442.221 581H424L442.138 563H442.221C443.223 563 444.185 563.948 444.893 565.636C445.602 567.324 446 569.613 446 572V572Z" fill="black"/>
<path opacity="0.1" d="M407 589.5C407 591.754 407.434 593.916 408.208 595.51C408.981 597.105 410.03 598 411.124 598H431L411.206 581H411.082C409.996 581.022 408.958 581.928 408.193 583.519C407.429 585.111 407 587.26 407 589.5V589.5Z" fill="black"/>
<path d="M126.242 630.992H77.4281C76.074 631.061 74.7253 630.678 73.462 629.864C72.1987 629.05 71.0466 627.823 70.0741 626.255C69.1015 624.687 68.3282 622.811 67.8002 620.736C67.2721 618.662 67 616.433 67 614.181C67 611.928 67.2721 609.699 67.8002 607.625C68.3282 605.551 69.1015 603.674 70.0741 602.106C71.0466 600.538 72.1987 599.311 73.462 598.497C74.7253 597.683 76.074 597.3 77.4281 597.369C76.074 597.438 74.7253 597.055 73.462 596.241C72.1987 595.427 71.0466 594.2 70.0741 592.632C69.1015 591.064 68.3282 589.188 67.8002 587.114C67.2721 585.039 67 582.81 67 580.558C67 578.305 67.2721 576.076 67.8002 574.002C68.3282 571.928 69.1015 570.051 70.0741 568.483C71.0466 566.915 72.1987 565.688 73.462 564.874C74.7253 564.061 76.074 563.677 77.4281 563.746H79.6486C80.9216 549.282 90.7514 538.016 102.687 538C114.622 537.984 124.462 549.218 125.754 563.667H126.194C128.822 563.801 131.316 565.631 133.146 568.769C134.976 571.907 136 576.107 136 580.478C136 584.849 134.976 589.049 133.146 592.187C131.316 595.325 128.822 597.155 126.194 597.29C128.822 597.424 131.316 599.254 133.146 602.392C134.976 605.53 136 609.73 136 614.101C136 618.472 134.976 622.672 133.146 625.81C131.316 628.948 128.822 630.778 126.194 630.912L126.242 630.992Z" fill="#6C63FF"/>
<path opacity="0.1" d="M136 579.529C135.996 583.625 135.056 587.551 133.386 590.45C131.715 593.349 129.451 594.985 127.087 595H84L126.766 564H127.028C128.206 563.998 129.372 564.398 130.461 565.178C131.549 565.957 132.538 567.101 133.372 568.543C134.205 569.985 134.866 571.698 135.317 573.583C135.768 575.468 136 577.489 136 579.529Z" fill="black"/>
<path opacity="0.1" d="M67 614.985C67.0109 619.234 67.9384 623.303 69.58 626.303C71.2216 629.304 73.444 630.992 75.7623 631H118L76.0356 599H75.7788C73.4612 599.004 71.2383 600.686 69.594 603.68C67.9498 606.674 67.0175 610.737 67 614.985Z" fill="black"/>
<path opacity="0.1" d="M189.023 153.146C186.306 152.384 183.494 152.823 180.948 154.407C179.429 155.399 177.784 155.912 176.12 155.912C174.456 155.912 172.811 155.399 171.292 154.407C169.496 153.258 167.551 152.691 165.59 152.747C163.63 152.802 161.701 153.478 159.937 154.727C158.93 155.507 157.809 155.919 156.67 155.928C152.068 155.928 148.239 149.154 147.445 140.209C148.364 139.229 149.145 137.999 149.746 136.587C152.444 130.233 156.595 126.161 161.313 126.161C166.032 126.161 170.141 130.163 172.84 136.477C173.647 138.371 174.773 139.93 176.112 141.004C177.45 142.078 178.956 142.631 180.483 142.61H180.606C184.27 142.6 187.441 146.893 189.023 153.146Z" fill="#6C63FF"/>
<path opacity="0.1" d="M252.274 112.605L238.18 122.297L246.733 105.417C244.312 103.312 241.31 102.148 238.206 102.111H237.986C237.008 102.136 236.031 102.06 235.066 101.886L230.277 105.164L232.328 101.127C228.944 99.8438 226.019 97.4368 223.97 94.2481L215.392 100.142L220.791 89.4936C215.794 82.9949 209.046 79 201.636 79C192.746 79 184.765 84.7251 179.704 93.6573C178.186 96.3223 176.047 98.506 173.502 99.9879C170.956 101.47 168.095 102.197 165.208 102.097H164.779C154.968 102.097 147 114.166 147 129.049C147 143.931 154.968 156 164.779 156C166.939 155.995 169.065 155.415 170.97 154.312C174.313 152.555 177.968 151.605 181.682 151.528C185.397 151.45 189.083 152.246 192.486 153.862C195.382 155.263 198.516 155.991 201.688 156C204.817 155.996 207.912 155.282 210.772 153.904C214.148 152.319 217.799 151.539 221.478 151.617C225.157 151.695 228.777 152.628 232.094 154.354C233.984 155.428 236.085 155.992 238.219 156C248.043 156 255.999 143.931 255.999 129.049C256.046 123.316 254.766 117.662 252.274 112.605Z" fill="#6C63FF"/>
<path opacity="0.1" d="M90.8269 263.208C93.5333 262.457 96.3316 262.895 98.8672 264.469C100.385 265.462 102.029 265.975 103.692 265.975C105.355 265.975 106.999 265.462 108.517 264.469C110.313 263.32 112.258 262.753 114.219 262.809C116.179 262.864 118.108 263.54 119.872 264.789C120.879 265.568 122 265.98 123.139 265.99C127.741 265.99 131.576 259.216 132.371 250.271C131.45 249.294 130.668 248.063 130.07 246.649C127.371 240.295 123.187 236.223 118.495 236.223C113.804 236.223 109.674 240.225 106.976 246.539C106.166 248.437 105.034 249.998 103.691 251.071C102.347 252.143 100.837 252.691 99.3055 252.662H99.1891C95.5456 252.662 92.3679 256.955 90.8269 263.208Z" fill="#6C63FF"/>
<path opacity="0.1" d="M78.7811 227.689L93.1333 236.248L84.411 221.342C86.8774 219.485 89.9339 218.457 93.0937 218.422H93.3316C94.3272 218.444 95.3228 218.377 96.3051 218.224L101.168 221.118L99.0804 217.553C102.531 216.421 105.513 214.295 107.605 211.478L116.314 216.671L110.803 207.267C115.904 201.528 122.763 198 130.322 198C139.375 198 147.437 203.056 152.657 210.944C154.201 213.299 156.379 215.228 158.972 216.537C161.564 217.845 164.478 218.487 167.419 218.398H167.895C177.899 218.398 186 229.056 186 242.199C186 255.342 177.899 266 167.895 266C165.696 265.992 163.532 265.481 161.591 264.509C158.186 262.958 154.464 262.119 150.681 262.05C146.898 261.982 143.145 262.685 139.679 264.112C136.735 265.349 133.547 265.993 130.322 266C127.135 265.999 123.983 265.368 121.071 264.149C117.631 262.749 113.91 262.06 110.162 262.129C106.414 262.197 102.725 263.022 99.3447 264.547C97.4203 265.496 95.2804 265.995 93.1069 266C83.1158 266 75.0014 255.342 75.0014 242.199C74.951 237.141 76.2506 232.153 78.7811 227.689Z" fill="#6C63FF"/>
</svg>
