<svg width="446.4025390625px" height="122.021240234375px" xmlns="http://www.w3.org/2000/svg" viewBox="26.798730468749994 13.9893798828125 446.4025390625 122.021240234375" style="background: rgba(0, 0, 0, 0);" preserveAspectRatio="xMidYMid"><defs><filter id="editing-vr"><feFlood flood-color="#f00" flood-opacity="0.7" result="c1"></feFlood><feFlood flood-color="#00f" flood-opacity="0.7" result="c3"></feFlood><feComposite operator="in" in="c1" in2="SourceAlpha" result="text-c1"></feComposite><feComposite operator="in" in="c3" in2="SourceAlpha" result="text-c3"></feComposite><feOffset in="text-c1" dx="5" dy="-1" result="text1"></feOffset><feOffset in="text-c3" dx="-5" dy="1" result="text3"></feOffset><feBlend in="SourceGraphic" in2="text1" mode="multiply" result="text4"></feBlend><feBlend in="text4" in2="text3" mode="multiply"></feBlend></filter></defs><g filter="url(#editing-vr)"><g transform="translate(92.81498777866364, 98.9921875)"><path d="M34.50-13.25L34.50-13.25L34.50-13.25Q36.16-12.03 36.16-9.44L36.16-9.44L36.16-9.44Q36.16-6.85 35.04-5.02L35.04-5.02L35.04-5.02Q33.92-3.20 31.74-1.79L31.74-1.79L31.74-1.79Q27.07 1.22 18.91 1.22L18.91 1.22L18.91 1.22Q10.75 1.22 6.30-3.04L6.30-3.04L6.30-3.04Q1.86-7.30 1.86-14.85L1.86-14.85L1.86-14.85Q1.86-25.54 7.42-33.66L7.42-33.66L7.42-33.66Q11.65-39.68 19.20-42.24L19.20-42.24L19.20-42.24Q23.10-43.52 26.94-43.52L26.94-43.52L26.94-43.52Q30.78-43.52 33.15-43.01L33.15-43.01L33.15-43.01Q35.52-42.50 37.31-41.47L37.31-41.47L37.31-41.47Q41.22-39.23 41.22-35.65L41.22-35.65L41.22-35.65Q41.22-32.38 38.14-29.95L38.14-29.95L38.14-29.95Q35.33-27.78 33.02-27.78L33.02-27.78L33.02-27.78Q30.72-27.78 29.76-28.10L29.76-28.10L29.76-28.10Q30.02-30.40 30.02-31.90L30.02-31.90L30.02-31.90Q30.02-33.41 29.95-34.50L29.95-34.50L29.95-34.50Q29.89-35.58 29.57-36.61L29.57-36.61L29.57-36.61Q28.93-38.98 26.98-38.98L26.98-38.98L26.98-38.98Q25.02-38.98 23.07-37.15L23.07-37.15L23.07-37.15Q21.12-35.33 19.46-32.26L19.46-32.26L19.46-32.26Q15.68-25.28 15.68-17.02L15.68-17.02L15.68-17.02Q15.68-13.06 17.92-10.78L17.92-10.78L17.92-10.78Q20.16-8.51 24.96-8.51L24.96-8.51L24.96-8.51Q28.54-8.51 31.94-10.88L31.94-10.88L31.94-10.88Q33.41-11.90 34.50-13.25ZM56.77-3.52L56.77-3.52L56.77-3.52Q54.78 1.28 48.45 1.28L48.45 1.28L48.45 1.28Q45.25 1.28 43.20-0.96L43.20-0.96L43.20-0.96Q41.54-2.82 41.54-4.93L41.54-4.93L41.54-4.93Q41.54-9.73 43.78-20.22L43.78-20.22L48.45-44.80L61.44-46.08L55.23-13.70L55.23-13.70Q54.14-8.96 54.14-7.30L54.14-7.30L54.14-7.30Q54.14-3.65 56.77-3.52ZM77.57-3.52L77.57-3.52L77.57-3.52Q75.58 1.28 69.25 1.28L69.25 1.28L69.25 1.28Q65.98 1.28 63.94-0.96L63.94-0.96L63.94-0.96Q62.21-2.94 62.21-4.93L62.21-4.93L62.21-4.93Q62.21-10.11 64.58-20.22L64.58-20.22L66.94-32.64L79.94-33.92L76.03-13.70L76.03-13.70Q74.94-8.96 74.94-7.30L74.94-7.30L74.94-7.30Q74.94-3.65 77.57-3.52ZM68.10-41.54L68.10-41.54L68.10-41.54Q68.10-44.03 70.18-45.38L70.18-45.38L70.18-45.38Q72.26-46.72 75.26-46.72L75.26-46.72L75.26-46.72Q78.27-46.72 80.10-45.38L80.10-45.38L80.10-45.38Q81.92-44.03 81.92-41.54L81.92-41.54L81.92-41.54Q81.92-39.04 79.90-37.76L79.90-37.76L79.90-37.76Q77.89-36.48 74.88-36.48L74.88-36.48L74.88-36.48Q71.87-36.48 69.98-37.76L69.98-37.76L69.98-37.76Q68.10-39.04 68.10-41.54ZM114.43-26.62L114.43-26.62L114.43-26.62Q114.43-23.94 112.19-22.27L112.19-22.27L112.19-22.27Q109.95-20.61 106.30-20.61L106.30-20.61L106.30-20.61Q104.77-20.61 103.87-21.06L103.87-21.06L103.87-21.06Q104.58-22.72 104.80-24.80L104.80-24.80L104.80-24.80Q105.02-26.88 105.02-27.46L105.02-27.46L105.02-27.46Q105.02-30.14 103.17-30.14L103.17-30.14L103.17-30.14Q101.89-30.14 100.45-28.54L100.45-28.54L100.45-28.54Q99.01-26.94 97.79-24.45L97.79-24.45L97.79-24.45Q95.10-18.69 95.10-12.86L95.10-12.86L95.10-12.86Q95.10-9.66 96.32-8.22L96.32-8.22L96.32-8.22Q97.54-6.78 100.22-6.78L100.22-6.78L100.22-6.78Q103.94-6.78 106.88-9.86L106.88-9.86L106.88-9.86Q107.71-10.82 108.16-11.90L108.16-11.90L108.16-11.90Q110.59-10.62 110.59-7.10L110.59-7.10L110.59-7.10Q110.59-3.52 106.62-1.15L106.62-1.15L106.62-1.15Q102.53 1.28 96 1.28L96 1.28L96 1.28Q83.01 1.28 83.01-12.48L83.01-12.48L83.01-12.48Q83.01-22.53 88.70-28.29L88.70-28.29L88.70-28.29Q94.21-33.92 104.32-33.92L104.32-33.92L104.32-33.92Q114.43-33.92 114.43-26.62ZM132.67-30.34L132.67-30.34L132.67-30.34Q136.13-33.92 143.42-33.92L143.42-33.92L143.42-33.92Q147.46-33.92 149.66-31.78L149.66-31.78L149.66-31.78Q151.87-29.63 151.87-25.70L151.87-25.70L151.87-25.70Q151.87-21.76 149.66-18.98L149.66-18.98L149.66-18.98Q147.46-16.19 143.36-15.04L143.36-15.04L143.36-15.04Q143.68-13.76 144.13-12.42L144.13-12.42L145.02-9.86L145.02-9.86Q146.24-6.59 147.20-5.44L147.20-5.44L147.20-5.44Q148.16-4.29 149.44-3.90L149.44-3.90L149.44-3.90Q148.74-1.28 146.18 0.13L146.18 0.13L146.18 0.13Q144.13 1.28 141.31 1.28L141.31 1.28L141.31 1.28Q133.06 1.28 131.97-11.46L131.97-11.46L131.97-11.46Q131.78-13.25 131.78-15.04L131.78-15.04L131.78-15.04Q134.98-15.94 137.22-18.94L137.22-18.94L137.22-18.94Q139.46-21.95 139.46-25.47L139.46-25.47L139.46-25.47Q139.46-28.99 136.96-28.99L136.96-28.99L136.96-28.99Q135.17-28.99 133.76-27.01L133.76-27.01L133.76-27.01Q132.35-25.02 131.71-21.63L131.71-21.63L127.49 0L114.56 1.28L123.52-44.80L136.38-46.08L134.91-38.46L134.91-38.46Q133.95-33.09 132.67-30.34ZM191.87-4.80L191.87-4.80L191.87-4.80Q191.87-9.28 193.66-18.24L193.66-18.24L184.19-18.24L180.67 0L167.30 0L175.42-42.24L188.93-42.24L185.22-23.36L194.69-23.36L198.21-42.24L211.71-42.24L211.71-42.24Q210.82-37.50 209.66-32.19L209.66-32.19L207.49-21.76L207.49-21.76Q205.06-9.60 205.06-4.29L205.06-4.29L205.06-4.29Q205.06-2.11 205.76-0.90L205.76-0.90L205.76-0.90Q202.56 1.28 198.82 1.28L198.82 1.28L198.82 1.28Q195.07 1.28 193.47-0.51L193.47-0.51L193.47-0.51Q191.87-2.30 191.87-4.80ZM239.17-10.82L239.17-10.82L239.17-10.82Q240.77-9.73 240.77-7.33L240.77-7.33L240.77-7.33Q240.77-4.93 239.55-3.39L239.55-3.39L239.55-3.39Q238.34-1.86 236.35-0.83L236.35-0.83L236.35-0.83Q232.26 1.28 227.84 1.28L227.84 1.28L227.84 1.28Q223.42 1.28 220.83 0.32L220.83 0.32L220.83 0.32Q218.24-0.64 216.51-2.43L216.51-2.43L216.51-2.43Q213.12-5.82 213.12-12.03L213.12-12.03L213.12-12.03Q213.12-21.70 218.37-27.58L218.37-27.58L218.37-27.58Q224-33.92 233.79-33.92L233.79-33.92L233.79-33.92Q239.87-33.92 242.88-31.36L242.88-31.36L242.88-31.36Q245.12-29.44 245.12-26.30L245.12-26.30L245.12-26.30Q245.12-15.04 225.66-15.04L225.66-15.04L225.66-15.04Q225.41-13.38 225.41-11.97L225.41-11.97L225.41-11.97Q225.41-9.02 226.72-7.90L226.72-7.90L226.72-7.90Q228.03-6.78 230.46-6.78L230.46-6.78L230.46-6.78Q232.90-6.78 235.49-7.90L235.49-7.90L235.49-7.90Q238.08-9.02 239.17-10.82ZM226.11-17.79L226.11-17.79L226.11-17.79Q230.66-17.79 233.28-20.61L233.28-20.61L233.28-20.61Q235.90-23.30 235.90-27.58L235.90-27.58L235.90-27.58Q235.90-29.06 235.36-29.86L235.36-29.86L235.36-29.86Q234.82-30.66 233.73-30.66L233.73-30.66L233.73-30.66Q232.64-30.66 231.71-30.24L231.71-30.24L231.71-30.24Q230.78-29.82 229.82-28.42L229.82-28.42L229.82-28.42Q227.46-25.22 226.11-17.79ZM267.33-17.98L267.33-17.98L267.33-17.98Q269.63-22.08 269.63-26.24L269.63-26.24L269.63-26.24Q269.63-28.99 267.65-28.99L267.65-28.99L267.65-28.99Q266.11-28.99 264.51-26.37L264.51-26.37L264.51-26.37Q262.85-23.74 262.34-20.35L262.34-20.35L259.01 0L245.76 1.28L252.29-32.64L262.85-33.92L261.70-27.46L261.70-27.46Q264.83-33.92 271.87-33.92L271.87-33.92L271.87-33.92Q275.58-33.92 277.60-32L277.60-32L277.60-32Q279.62-30.08 279.62-26.14L279.62-26.14L279.62-26.14Q279.62-22.21 277.02-19.71L277.02-19.71L277.02-19.71Q274.43-17.22 270.02-17.22L270.02-17.22L270.02-17.22Q268.10-17.22 267.33-17.98ZM306.56-10.82L306.56-10.82L306.56-10.82Q308.16-9.73 308.16-7.33L308.16-7.33L308.16-7.33Q308.16-4.93 306.94-3.39L306.94-3.39L306.94-3.39Q305.73-1.86 303.74-0.83L303.74-0.83L303.74-0.83Q299.65 1.28 295.23 1.28L295.23 1.28L295.23 1.28Q290.82 1.28 288.22 0.32L288.22 0.32L288.22 0.32Q285.63-0.64 283.90-2.43L283.90-2.43L283.90-2.43Q280.51-5.82 280.51-12.03L280.51-12.03L280.51-12.03Q280.51-21.70 285.76-27.58L285.76-27.58L285.76-27.58Q291.39-33.92 301.18-33.92L301.18-33.92L301.18-33.92Q307.26-33.92 310.27-31.36L310.27-31.36L310.27-31.36Q312.51-29.44 312.51-26.30L312.51-26.30L312.51-26.30Q312.51-15.04 293.06-15.04L293.06-15.04L293.06-15.04Q292.80-13.38 292.80-11.97L292.80-11.97L292.80-11.97Q292.80-9.02 294.11-7.90L294.11-7.90L294.11-7.90Q295.42-6.78 297.86-6.78L297.86-6.78L297.86-6.78Q300.29-6.78 302.88-7.90L302.88-7.90L302.88-7.90Q305.47-9.02 306.56-10.82ZM293.50-17.79L293.50-17.79L293.50-17.79Q298.05-17.79 300.67-20.61L300.67-20.61L300.67-20.61Q303.30-23.30 303.30-27.58L303.30-27.58L303.30-27.58Q303.30-29.06 302.75-29.86L302.75-29.86L302.75-29.86Q302.21-30.66 301.12-30.66L301.12-30.66L301.12-30.66Q300.03-30.66 299.10-30.24L299.10-30.24L299.10-30.24Q298.18-29.82 297.22-28.42L297.22-28.42L297.22-28.42Q294.85-25.22 293.50-17.79Z" fill="#444"></path></g></g><style>text {
  font-size: 64px;
  font-family: Arial Black;
  dominant-baseline: central;
  text-anchor: middle;
}</style></svg>